<mxfile host="app.diagrams.net" modified="2023-10-25T13:45:11.232Z" agent="Mozilla/5.0 (X11; Linux x86_64; rv:109.0) Gecko/20100101 Firefox/118.0" etag="6GbNCViP5tNhdgoRsPaz" version="22.0.8" type="device" pages="4">
  <diagram name="Page-1" id="Vtq19uJocOTiTlhImBpB">
    <mxGraphModel dx="868" dy="1578" grid="1" gridSize="10" guides="1" tooltips="1" connect="1" arrows="1" fold="1" page="1" pageScale="1" pageWidth="850" pageHeight="1100" math="0" shadow="0">
      <root>
        <mxCell id="0" />
        <mxCell id="1" parent="0" />
        <mxCell id="Av_qKmk5VdH78iRkDTVT-17" style="edgeStyle=orthogonalEdgeStyle;rounded=0;orthogonalLoop=1;jettySize=auto;html=1;exitX=0.5;exitY=1;exitDx=0;exitDy=0;entryX=0;entryY=0.5;entryDx=0;entryDy=0;" parent="1" source="Av_qKmk5VdH78iRkDTVT-1" target="Av_qKmk5VdH78iRkDTVT-16" edge="1">
          <mxGeometry relative="1" as="geometry" />
        </mxCell>
        <mxCell id="z_1UlW7bQPlhQT8Nd_ED-2" style="edgeStyle=orthogonalEdgeStyle;rounded=0;orthogonalLoop=1;jettySize=auto;html=1;exitX=0.5;exitY=1;exitDx=0;exitDy=0;entryX=0;entryY=0.5;entryDx=0;entryDy=0;" parent="1" source="Av_qKmk5VdH78iRkDTVT-1" target="Av_qKmk5VdH78iRkDTVT-13" edge="1">
          <mxGeometry relative="1" as="geometry">
            <Array as="points">
              <mxPoint x="230" y="150" />
              <mxPoint x="230" y="280" />
            </Array>
          </mxGeometry>
        </mxCell>
        <mxCell id="Av_qKmk5VdH78iRkDTVT-1" value="3 o mas escalas" style="rounded=0;whiteSpace=wrap;html=1;" parent="1" vertex="1">
          <mxGeometry x="140" y="90" width="120" height="60" as="geometry" />
        </mxCell>
        <mxCell id="_rqxyXASxXx8GgKjFeVU-1" style="edgeStyle=orthogonalEdgeStyle;rounded=0;orthogonalLoop=1;jettySize=auto;html=1;exitX=1;exitY=0.5;exitDx=0;exitDy=0;entryX=0;entryY=0.5;entryDx=0;entryDy=0;" parent="1" source="Av_qKmk5VdH78iRkDTVT-2" target="_rqxyXASxXx8GgKjFeVU-2" edge="1">
          <mxGeometry relative="1" as="geometry">
            <mxPoint x="710" y="120" as="targetPoint" />
          </mxGeometry>
        </mxCell>
        <mxCell id="Av_qKmk5VdH78iRkDTVT-2" value="Suma parcial" style="rounded=0;whiteSpace=wrap;html=1;" parent="1" vertex="1">
          <mxGeometry x="530" y="90" width="120" height="60" as="geometry" />
        </mxCell>
        <mxCell id="Av_qKmk5VdH78iRkDTVT-19" style="edgeStyle=orthogonalEdgeStyle;rounded=0;orthogonalLoop=1;jettySize=auto;html=1;exitX=0.5;exitY=1;exitDx=0;exitDy=0;" parent="1" source="Av_qKmk5VdH78iRkDTVT-3" edge="1">
          <mxGeometry relative="1" as="geometry">
            <mxPoint x="470" y="480" as="targetPoint" />
            <Array as="points">
              <mxPoint x="560" y="390" />
              <mxPoint x="471" y="390" />
            </Array>
          </mxGeometry>
        </mxCell>
        <mxCell id="Av_qKmk5VdH78iRkDTVT-3" value="Distancia mas del doble que directa" style="rounded=0;whiteSpace=wrap;html=1;" parent="1" vertex="1">
          <mxGeometry x="940" y="100" width="120" height="60" as="geometry" />
        </mxCell>
        <mxCell id="Av_qKmk5VdH78iRkDTVT-9" style="edgeStyle=orthogonalEdgeStyle;rounded=0;orthogonalLoop=1;jettySize=auto;html=1;exitX=0.5;exitY=1;exitDx=0;exitDy=0;entryX=0.5;entryY=0;entryDx=0;entryDy=0;" parent="1" source="Av_qKmk5VdH78iRkDTVT-8" target="Av_qKmk5VdH78iRkDTVT-1" edge="1">
          <mxGeometry relative="1" as="geometry" />
        </mxCell>
        <mxCell id="Av_qKmk5VdH78iRkDTVT-11" style="edgeStyle=orthogonalEdgeStyle;rounded=0;orthogonalLoop=1;jettySize=auto;html=1;exitX=0.5;exitY=1;exitDx=0;exitDy=0;entryX=0.5;entryY=0;entryDx=0;entryDy=0;" parent="1" source="Av_qKmk5VdH78iRkDTVT-8" target="Av_qKmk5VdH78iRkDTVT-3" edge="1">
          <mxGeometry relative="1" as="geometry">
            <Array as="points">
              <mxPoint x="450" y="30" />
              <mxPoint x="1000" y="30" />
            </Array>
          </mxGeometry>
        </mxCell>
        <mxCell id="Av_qKmk5VdH78iRkDTVT-12" style="edgeStyle=orthogonalEdgeStyle;rounded=0;orthogonalLoop=1;jettySize=auto;html=1;exitX=0.5;exitY=1;exitDx=0;exitDy=0;entryX=0.5;entryY=0;entryDx=0;entryDy=0;" parent="1" source="Av_qKmk5VdH78iRkDTVT-8" target="Av_qKmk5VdH78iRkDTVT-2" edge="1">
          <mxGeometry relative="1" as="geometry" />
        </mxCell>
        <mxCell id="_rqxyXASxXx8GgKjFeVU-5" style="edgeStyle=orthogonalEdgeStyle;rounded=0;orthogonalLoop=1;jettySize=auto;html=1;exitX=0.5;exitY=1;exitDx=0;exitDy=0;entryX=0;entryY=0.5;entryDx=0;entryDy=0;" parent="1" source="Av_qKmk5VdH78iRkDTVT-8" target="_rqxyXASxXx8GgKjFeVU-4" edge="1">
          <mxGeometry relative="1" as="geometry" />
        </mxCell>
        <mxCell id="Av_qKmk5VdH78iRkDTVT-8" value="Datos" style="rounded=0;whiteSpace=wrap;html=1;" parent="1" vertex="1">
          <mxGeometry x="390" y="-100" width="120" height="60" as="geometry" />
        </mxCell>
        <mxCell id="Av_qKmk5VdH78iRkDTVT-18" style="edgeStyle=orthogonalEdgeStyle;rounded=0;orthogonalLoop=1;jettySize=auto;html=1;exitX=0.5;exitY=1;exitDx=0;exitDy=0;entryX=0.5;entryY=0;entryDx=0;entryDy=0;" parent="1" source="Av_qKmk5VdH78iRkDTVT-13" target="Av_qKmk5VdH78iRkDTVT-16" edge="1">
          <mxGeometry relative="1" as="geometry">
            <Array as="points">
              <mxPoint x="390" y="390" />
              <mxPoint x="470" y="390" />
            </Array>
          </mxGeometry>
        </mxCell>
        <mxCell id="Av_qKmk5VdH78iRkDTVT-13" value="dos mas rapidos" style="rounded=0;whiteSpace=wrap;html=1;" parent="1" vertex="1">
          <mxGeometry x="330" y="250" width="120" height="60" as="geometry" />
        </mxCell>
        <mxCell id="Av_qKmk5VdH78iRkDTVT-16" value="Resultado" style="rounded=0;whiteSpace=wrap;html=1;" parent="1" vertex="1">
          <mxGeometry x="410" y="480" width="120" height="60" as="geometry" />
        </mxCell>
        <mxCell id="wR4I1c_-asHValt79U9c-1" value="parseados (ID, origen, destino, precio, distancia total, duracion)" style="text;html=1;align=center;verticalAlign=middle;resizable=0;points=[];autosize=1;strokeColor=none;fillColor=none;" parent="1" vertex="1">
          <mxGeometry x="290" y="-22" width="360" height="30" as="geometry" />
        </mxCell>
        <mxCell id="wR4I1c_-asHValt79U9c-2" value="origen, destino, duracion" style="text;html=1;align=center;verticalAlign=middle;resizable=0;points=[];autosize=1;strokeColor=none;fillColor=none;" parent="1" vertex="1">
          <mxGeometry x="250" y="178" width="150" height="30" as="geometry" />
        </mxCell>
        <mxCell id="wR4I1c_-asHValt79U9c-4" value="origen, destino, duracion1, duracion2" style="text;html=1;align=center;verticalAlign=middle;resizable=0;points=[];autosize=1;strokeColor=none;fillColor=none;" parent="1" vertex="1">
          <mxGeometry x="300" y="328" width="220" height="30" as="geometry" />
        </mxCell>
        <mxCell id="wR4I1c_-asHValt79U9c-5" value="origen, destino, ID" style="text;html=1;align=center;verticalAlign=middle;resizable=0;points=[];autosize=1;strokeColor=none;fillColor=none;" parent="1" vertex="1">
          <mxGeometry x="960" y="165" width="120" height="30" as="geometry" />
        </mxCell>
        <mxCell id="wR4I1c_-asHValt79U9c-6" value="origen, destino, media, maximo" style="text;html=1;align=center;verticalAlign=middle;resizable=0;points=[];autosize=1;strokeColor=none;fillColor=none;" parent="1" vertex="1">
          <mxGeometry x="530" y="328" width="190" height="30" as="geometry" />
        </mxCell>
        <mxCell id="wR4I1c_-asHValt79U9c-8" value="aeropuerto, coordenadas" style="text;html=1;align=center;verticalAlign=middle;resizable=0;points=[];autosize=1;strokeColor=none;fillColor=none;" parent="1" vertex="1">
          <mxGeometry x="980" y="-40" width="160" height="30" as="geometry" />
        </mxCell>
        <mxCell id="wR4I1c_-asHValt79U9c-11" style="edgeStyle=orthogonalEdgeStyle;rounded=0;orthogonalLoop=1;jettySize=auto;html=1;exitX=0.5;exitY=1;exitDx=0;exitDy=0;entryX=0.75;entryY=0;entryDx=0;entryDy=0;" parent="1" source="wR4I1c_-asHValt79U9c-10" target="Av_qKmk5VdH78iRkDTVT-3" edge="1">
          <mxGeometry relative="1" as="geometry">
            <Array as="points">
              <mxPoint x="980" />
              <mxPoint x="1030" />
            </Array>
          </mxGeometry>
        </mxCell>
        <mxCell id="wR4I1c_-asHValt79U9c-10" value="Distancia mas del doble que directa" style="rounded=0;whiteSpace=wrap;html=1;" parent="1" vertex="1">
          <mxGeometry x="920" y="-110" width="120" height="60" as="geometry" />
        </mxCell>
        <mxCell id="z_1UlW7bQPlhQT8Nd_ED-3" value="origen, destino, precio" style="text;html=1;align=center;verticalAlign=middle;resizable=0;points=[];autosize=1;strokeColor=none;fillColor=none;" parent="1" vertex="1">
          <mxGeometry x="60" y="178" width="140" height="30" as="geometry" />
        </mxCell>
        <mxCell id="_rqxyXASxXx8GgKjFeVU-6" style="edgeStyle=orthogonalEdgeStyle;rounded=0;orthogonalLoop=1;jettySize=auto;html=1;exitX=0.5;exitY=1;exitDx=0;exitDy=0;entryX=1;entryY=0.5;entryDx=0;entryDy=0;" parent="1" source="_rqxyXASxXx8GgKjFeVU-2" target="_rqxyXASxXx8GgKjFeVU-4" edge="1">
          <mxGeometry relative="1" as="geometry" />
        </mxCell>
        <mxCell id="_rqxyXASxXx8GgKjFeVU-2" value="Promedio total" style="rounded=0;whiteSpace=wrap;html=1;" parent="1" vertex="1">
          <mxGeometry x="740" y="90" width="120" height="60" as="geometry" />
        </mxCell>
        <mxCell id="_rqxyXASxXx8GgKjFeVU-7" style="edgeStyle=orthogonalEdgeStyle;rounded=0;orthogonalLoop=1;jettySize=auto;html=1;exitX=0.5;exitY=1;exitDx=0;exitDy=0;entryX=0.5;entryY=0;entryDx=0;entryDy=0;" parent="1" source="_rqxyXASxXx8GgKjFeVU-4" target="Av_qKmk5VdH78iRkDTVT-16" edge="1">
          <mxGeometry relative="1" as="geometry">
            <Array as="points">
              <mxPoint x="590" y="390" />
              <mxPoint x="470" y="390" />
            </Array>
          </mxGeometry>
        </mxCell>
        <mxCell id="_rqxyXASxXx8GgKjFeVU-4" value="Promedio y maximo" style="rounded=0;whiteSpace=wrap;html=1;" parent="1" vertex="1">
          <mxGeometry x="530" y="200" width="120" height="60" as="geometry" />
        </mxCell>
        <mxCell id="_rqxyXASxXx8GgKjFeVU-8" value="PromedioPrecio" style="text;html=1;align=center;verticalAlign=middle;resizable=0;points=[];autosize=1;strokeColor=none;fillColor=none;" parent="1" vertex="1">
          <mxGeometry x="800" y="188" width="110" height="30" as="geometry" />
        </mxCell>
        <mxCell id="_rqxyXASxXx8GgKjFeVU-9" value="Suma, cantidades" style="text;html=1;align=center;verticalAlign=middle;resizable=0;points=[];autosize=1;strokeColor=none;fillColor=none;" parent="1" vertex="1">
          <mxGeometry x="630" y="60" width="120" height="30" as="geometry" />
        </mxCell>
      </root>
    </mxGraphModel>
  </diagram>
  <diagram id="vihMNG-lIPFq3iVxBqbr" name="DiagramaRobustez">
    <mxGraphModel dx="1718" dy="1578" grid="1" gridSize="10" guides="1" tooltips="1" connect="1" arrows="1" fold="1" page="1" pageScale="1" pageWidth="850" pageHeight="1100" math="0" shadow="0">
      <root>
        <mxCell id="0" />
        <mxCell id="1" parent="0" />
        <mxCell id="C7V8-oqrq3Y0ZI8Kbpaw-1" value="" style="rounded=0;whiteSpace=wrap;html=1;fillColor=none;" vertex="1" parent="1">
          <mxGeometry x="880" y="770" width="320" height="150" as="geometry" />
        </mxCell>
        <mxCell id="C7V8-oqrq3Y0ZI8Kbpaw-2" value="" style="rounded=0;whiteSpace=wrap;html=1;fillColor=none;" vertex="1" parent="1">
          <mxGeometry x="880" y="770" width="330" height="150" as="geometry" />
        </mxCell>
        <mxCell id="vWzix96Z64M3fHZLnADR-76" value="" style="rounded=0;whiteSpace=wrap;html=1;fillColor=none;" parent="1" vertex="1">
          <mxGeometry x="-140" y="-40" width="1580" height="1210" as="geometry" />
        </mxCell>
        <mxCell id="vWzix96Z64M3fHZLnADR-51" value="" style="rounded=0;whiteSpace=wrap;html=1;fillColor=none;" parent="1" vertex="1">
          <mxGeometry x="70" y="270" width="380" height="140" as="geometry" />
        </mxCell>
        <mxCell id="vWzix96Z64M3fHZLnADR-54" value="" style="rounded=0;whiteSpace=wrap;html=1;fillColor=none;" parent="1" vertex="1">
          <mxGeometry x="620" y="630" width="230" height="280" as="geometry" />
        </mxCell>
        <mxCell id="vWzix96Z64M3fHZLnADR-64" value="" style="rounded=0;whiteSpace=wrap;html=1;fillColor=none;" parent="1" vertex="1">
          <mxGeometry x="620" y="630" width="220" height="280" as="geometry" />
        </mxCell>
        <mxCell id="tgHYlAVjc7Peqk4h9AsL-1" style="edgeStyle=orthogonalEdgeStyle;rounded=0;orthogonalLoop=1;jettySize=auto;html=1;" parent="1" source="tgHYlAVjc7Peqk4h9AsL-71" target="tgHYlAVjc7Peqk4h9AsL-3" edge="1">
          <mxGeometry relative="1" as="geometry">
            <mxPoint x="400" as="sourcePoint" />
          </mxGeometry>
        </mxCell>
        <mxCell id="tgHYlAVjc7Peqk4h9AsL-3" value="&lt;div&gt;Conexion&lt;/div&gt;&lt;div&gt;Datos&lt;/div&gt;" style="shape=umlBoundary;whiteSpace=wrap;html=1;" parent="1" vertex="1">
          <mxGeometry x="340" y="140" width="100" height="80" as="geometry" />
        </mxCell>
        <mxCell id="tgHYlAVjc7Peqk4h9AsL-4" style="edgeStyle=orthogonalEdgeStyle;rounded=0;orthogonalLoop=1;jettySize=auto;html=1;" parent="1" source="tgHYlAVjc7Peqk4h9AsL-97" target="tgHYlAVjc7Peqk4h9AsL-62" edge="1">
          <mxGeometry relative="1" as="geometry">
            <mxPoint x="400" y="520" as="sourcePoint" />
            <mxPoint x="130" y="550" as="targetPoint" />
            <Array as="points">
              <mxPoint x="390" y="580" />
            </Array>
          </mxGeometry>
        </mxCell>
        <mxCell id="tgHYlAVjc7Peqk4h9AsL-10" style="edgeStyle=orthogonalEdgeStyle;rounded=0;orthogonalLoop=1;jettySize=auto;html=1;" parent="1" source="tgHYlAVjc7Peqk4h9AsL-117" target="tgHYlAVjc7Peqk4h9AsL-105" edge="1">
          <mxGeometry relative="1" as="geometry">
            <mxPoint x="1135" y="647" as="sourcePoint" />
            <mxPoint x="1135" y="710" as="targetPoint" />
          </mxGeometry>
        </mxCell>
        <mxCell id="tgHYlAVjc7Peqk4h9AsL-20" value="Filtro mas de 4 veces que directo" style="text;html=1;align=center;verticalAlign=middle;resizable=0;points=[];autosize=1;strokeColor=none;fillColor=none;" parent="1" vertex="1">
          <mxGeometry x="640" y="770" width="180" height="30" as="geometry" />
        </mxCell>
        <mxCell id="tgHYlAVjc7Peqk4h9AsL-32" value="Parser" style="text;html=1;align=center;verticalAlign=middle;resizable=0;points=[];autosize=1;strokeColor=none;fillColor=none;" parent="1" vertex="1">
          <mxGeometry x="325" y="360" width="60" height="30" as="geometry" />
        </mxCell>
        <mxCell id="tgHYlAVjc7Peqk4h9AsL-69" style="edgeStyle=orthogonalEdgeStyle;rounded=0;orthogonalLoop=1;jettySize=auto;html=1;" parent="1" source="tgHYlAVjc7Peqk4h9AsL-121" target="tgHYlAVjc7Peqk4h9AsL-101" edge="1">
          <mxGeometry relative="1" as="geometry">
            <mxPoint x="295" y="868" as="sourcePoint" />
            <mxPoint x="350" y="868" as="targetPoint" />
          </mxGeometry>
        </mxCell>
        <mxCell id="tgHYlAVjc7Peqk4h9AsL-49" value="Agregador resultados" style="text;html=1;align=center;verticalAlign=middle;resizable=0;points=[];autosize=1;strokeColor=none;fillColor=none;" parent="1" vertex="1">
          <mxGeometry x="65" y="373" width="140" height="30" as="geometry" />
        </mxCell>
        <mxCell id="KQBHp2sGtYCPplzfa_Z2-1" style="edgeStyle=orthogonalEdgeStyle;rounded=0;orthogonalLoop=1;jettySize=auto;html=1;" parent="1" source="tgHYlAVjc7Peqk4h9AsL-62" target="tgHYlAVjc7Peqk4h9AsL-95" edge="1">
          <mxGeometry relative="1" as="geometry">
            <Array as="points">
              <mxPoint x="-70" y="340" />
            </Array>
          </mxGeometry>
        </mxCell>
        <mxCell id="tgHYlAVjc7Peqk4h9AsL-62" value="" style="shape=cylinder3;whiteSpace=wrap;html=1;boundedLbl=1;backgroundOutline=1;size=15;rotation=-90;" parent="1" vertex="1">
          <mxGeometry x="-100" y="540" width="60" height="80" as="geometry" />
        </mxCell>
        <mxCell id="tgHYlAVjc7Peqk4h9AsL-71" value="Cliente" style="shape=umlActor;verticalLabelPosition=bottom;verticalAlign=top;html=1;outlineConnect=0;" parent="1" vertex="1">
          <mxGeometry x="375" y="-10" width="30" height="60" as="geometry" />
        </mxCell>
        <mxCell id="tgHYlAVjc7Peqk4h9AsL-73" value="Coordenadas aeropuertos" style="shape=note;whiteSpace=wrap;html=1;backgroundOutline=1;darkOpacity=0.05;size=11;" parent="1" vertex="1">
          <mxGeometry x="692.5" y="810" width="75" height="60" as="geometry" />
        </mxCell>
        <mxCell id="tgHYlAVjc7Peqk4h9AsL-74" value="InformacionVuelo" style="text;html=1;align=center;verticalAlign=middle;resizable=0;points=[];autosize=1;strokeColor=none;fillColor=none;" parent="1" vertex="1">
          <mxGeometry x="380" y="80" width="120" height="30" as="geometry" />
        </mxCell>
        <mxCell id="tgHYlAVjc7Peqk4h9AsL-75" value="InformacionVuelo" style="text;html=1;align=center;verticalAlign=middle;resizable=0;points=[];autosize=1;strokeColor=none;fillColor=none;" parent="1" vertex="1">
          <mxGeometry x="405" y="240" width="110" height="30" as="geometry" />
        </mxCell>
        <mxCell id="tgHYlAVjc7Peqk4h9AsL-76" value="VueloConDistancia" style="text;html=1;align=center;verticalAlign=middle;resizable=0;points=[];autosize=1;strokeColor=none;fillColor=none;" parent="1" vertex="1">
          <mxGeometry x="730" y="510" width="120" height="30" as="geometry" />
        </mxCell>
        <mxCell id="tgHYlAVjc7Peqk4h9AsL-95" value="Worker" style="ellipse;shape=umlControl;whiteSpace=wrap;html=1;" parent="1" vertex="1">
          <mxGeometry x="100" y="293" width="70" height="80" as="geometry" />
        </mxCell>
        <mxCell id="tgHYlAVjc7Peqk4h9AsL-97" value="Worker" style="ellipse;shape=umlControl;whiteSpace=wrap;html=1;" parent="1" vertex="1">
          <mxGeometry x="355" y="293" width="70" height="80" as="geometry" />
        </mxCell>
        <mxCell id="tgHYlAVjc7Peqk4h9AsL-116" style="edgeStyle=orthogonalEdgeStyle;rounded=0;orthogonalLoop=1;jettySize=auto;html=1;" parent="1" source="tgHYlAVjc7Peqk4h9AsL-114" target="vWzix96Z64M3fHZLnADR-19" edge="1">
          <mxGeometry relative="1" as="geometry">
            <mxPoint x="605" y="690" as="targetPoint" />
            <Array as="points">
              <mxPoint x="720" y="580" />
            </Array>
          </mxGeometry>
        </mxCell>
        <mxCell id="tgHYlAVjc7Peqk4h9AsL-114" value="" style="shape=cylinder3;whiteSpace=wrap;html=1;boundedLbl=1;backgroundOutline=1;size=15;rotation=-90;" parent="1" vertex="1">
          <mxGeometry x="700" y="537" width="60" height="80" as="geometry" />
        </mxCell>
        <mxCell id="tgHYlAVjc7Peqk4h9AsL-115" value="Cola" style="text;html=1;align=center;verticalAlign=middle;resizable=0;points=[];autosize=1;strokeColor=none;fillColor=none;" parent="1" vertex="1">
          <mxGeometry x="710" y="565" width="50" height="30" as="geometry" />
        </mxCell>
        <mxCell id="tgHYlAVjc7Peqk4h9AsL-117" value="" style="shape=cylinder3;whiteSpace=wrap;html=1;boundedLbl=1;backgroundOutline=1;size=15;rotation=-90;" parent="1" vertex="1">
          <mxGeometry x="1100" y="537" width="60" height="80" as="geometry" />
        </mxCell>
        <mxCell id="tgHYlAVjc7Peqk4h9AsL-118" value="Cola" style="text;html=1;align=center;verticalAlign=middle;resizable=0;points=[];autosize=1;strokeColor=none;fillColor=none;" parent="1" vertex="1">
          <mxGeometry x="1115" y="562" width="50" height="30" as="geometry" />
        </mxCell>
        <mxCell id="tgHYlAVjc7Peqk4h9AsL-121" value="" style="shape=cylinder3;whiteSpace=wrap;html=1;boundedLbl=1;backgroundOutline=1;size=15;rotation=-90;" parent="1" vertex="1">
          <mxGeometry x="200" y="820" width="60" height="80" as="geometry" />
        </mxCell>
        <mxCell id="tgHYlAVjc7Peqk4h9AsL-122" value="Cola" style="text;html=1;align=center;verticalAlign=middle;resizable=0;points=[];autosize=1;strokeColor=none;fillColor=none;" parent="1" vertex="1">
          <mxGeometry x="210" y="845" width="50" height="30" as="geometry" />
        </mxCell>
        <mxCell id="tgHYlAVjc7Peqk4h9AsL-125" value="" style="endArrow=classic;html=1;rounded=0;" parent="1" source="tgHYlAVjc7Peqk4h9AsL-97" target="tgHYlAVjc7Peqk4h9AsL-114" edge="1">
          <mxGeometry width="50" height="50" relative="1" as="geometry">
            <mxPoint x="420" y="640" as="sourcePoint" />
            <mxPoint x="470" y="590" as="targetPoint" />
            <Array as="points">
              <mxPoint x="390" y="460" />
              <mxPoint x="730" y="460" />
            </Array>
          </mxGeometry>
        </mxCell>
        <mxCell id="tgHYlAVjc7Peqk4h9AsL-126" value="" style="endArrow=classic;html=1;rounded=0;" parent="1" source="tgHYlAVjc7Peqk4h9AsL-97" target="tgHYlAVjc7Peqk4h9AsL-117" edge="1">
          <mxGeometry width="50" height="50" relative="1" as="geometry">
            <mxPoint x="400" y="370" as="sourcePoint" />
            <mxPoint x="470" y="530" as="targetPoint" />
            <Array as="points">
              <mxPoint x="390" y="460" />
              <mxPoint x="1130" y="460" />
            </Array>
          </mxGeometry>
        </mxCell>
        <mxCell id="tgHYlAVjc7Peqk4h9AsL-128" value="Cola" style="text;html=1;align=center;verticalAlign=middle;resizable=0;points=[];autosize=1;strokeColor=none;fillColor=none;" parent="1" vertex="1">
          <mxGeometry x="-90" y="565" width="50" height="30" as="geometry" />
        </mxCell>
        <mxCell id="KQBHp2sGtYCPplzfa_Z2-3" value="" style="endArrow=classic;html=1;rounded=0;" parent="1" source="tgHYlAVjc7Peqk4h9AsL-101" target="tgHYlAVjc7Peqk4h9AsL-62" edge="1">
          <mxGeometry width="50" height="50" relative="1" as="geometry">
            <mxPoint x="350" y="910" as="sourcePoint" />
            <mxPoint x="400" y="860" as="targetPoint" />
            <Array as="points">
              <mxPoint x="385" y="1050" />
              <mxPoint x="-70" y="1050" />
            </Array>
          </mxGeometry>
        </mxCell>
        <mxCell id="KQBHp2sGtYCPplzfa_Z2-4" value="" style="endArrow=classic;html=1;rounded=0;" parent="1" source="vWzix96Z64M3fHZLnADR-19" target="tgHYlAVjc7Peqk4h9AsL-62" edge="1">
          <mxGeometry width="50" height="50" relative="1" as="geometry">
            <mxPoint x="605" y="770" as="sourcePoint" />
            <mxPoint x="400" y="750" as="targetPoint" />
            <Array as="points">
              <mxPoint x="605" y="730" />
              <mxPoint x="605" y="1050" />
              <mxPoint x="-70" y="1050" />
            </Array>
          </mxGeometry>
        </mxCell>
        <mxCell id="KQBHp2sGtYCPplzfa_Z2-7" value="" style="endArrow=classic;html=1;rounded=0;" parent="1" source="tgHYlAVjc7Peqk4h9AsL-3" target="tgHYlAVjc7Peqk4h9AsL-97" edge="1">
          <mxGeometry width="50" height="50" relative="1" as="geometry">
            <mxPoint x="400" y="200" as="sourcePoint" />
            <mxPoint x="400" y="340" as="targetPoint" />
          </mxGeometry>
        </mxCell>
        <mxCell id="KQBHp2sGtYCPplzfa_Z2-8" value="Resaultados Queries" style="text;html=1;align=center;verticalAlign=middle;resizable=0;points=[];autosize=1;strokeColor=none;fillColor=none;" parent="1" vertex="1">
          <mxGeometry x="130" y="-10" width="140" height="30" as="geometry" />
        </mxCell>
        <mxCell id="KQBHp2sGtYCPplzfa_Z2-9" value="Resaultados Queries" style="text;html=1;align=center;verticalAlign=middle;resizable=0;points=[];autosize=1;strokeColor=none;fillColor=none;" parent="1" vertex="1">
          <mxGeometry x="-70" y="310" width="140" height="30" as="geometry" />
        </mxCell>
        <mxCell id="pZK8rin384X-fQ7fw4jk-3" value="Filtro dos mas rapidos" style="text;html=1;align=center;verticalAlign=middle;resizable=0;points=[];autosize=1;strokeColor=none;fillColor=none;" parent="1" vertex="1">
          <mxGeometry x="315" y="900" width="140" height="30" as="geometry" />
        </mxCell>
        <mxCell id="vWzix96Z64M3fHZLnADR-1" value="&lt;div&gt;Conexion&lt;/div&gt;&lt;div&gt;Resultados&lt;/div&gt;" style="shape=umlBoundary;whiteSpace=wrap;html=1;" parent="1" vertex="1">
          <mxGeometry x="85" y="140" width="100" height="80" as="geometry" />
        </mxCell>
        <mxCell id="vWzix96Z64M3fHZLnADR-2" value="" style="endArrow=classic;html=1;rounded=0;" parent="1" source="tgHYlAVjc7Peqk4h9AsL-95" target="vWzix96Z64M3fHZLnADR-1" edge="1">
          <mxGeometry width="50" height="50" relative="1" as="geometry">
            <mxPoint x="100" y="410" as="sourcePoint" />
            <mxPoint x="135" y="200" as="targetPoint" />
          </mxGeometry>
        </mxCell>
        <mxCell id="vWzix96Z64M3fHZLnADR-3" value="" style="endArrow=classic;html=1;rounded=0;" parent="1" source="vWzix96Z64M3fHZLnADR-1" target="tgHYlAVjc7Peqk4h9AsL-71" edge="1">
          <mxGeometry width="50" height="50" relative="1" as="geometry">
            <mxPoint x="140" y="110" as="sourcePoint" />
            <mxPoint x="370" y="-30" as="targetPoint" />
            <Array as="points">
              <mxPoint x="135" y="20" />
            </Array>
          </mxGeometry>
        </mxCell>
        <mxCell id="vWzix96Z64M3fHZLnADR-4" value="Resaultados Queries" style="text;html=1;align=center;verticalAlign=middle;resizable=0;points=[];autosize=1;strokeColor=none;fillColor=none;" parent="1" vertex="1">
          <mxGeometry x="120" y="230" width="140" height="30" as="geometry" />
        </mxCell>
        <mxCell id="vWzix96Z64M3fHZLnADR-5" value="MasDe3Escalas" style="text;html=1;align=center;verticalAlign=middle;resizable=0;points=[];autosize=1;strokeColor=none;fillColor=none;" parent="1" vertex="1">
          <mxGeometry x="110" y="550" width="110" height="30" as="geometry" />
        </mxCell>
        <mxCell id="vWzix96Z64M3fHZLnADR-6" value="" style="endArrow=classic;html=1;rounded=0;" parent="1" source="tgHYlAVjc7Peqk4h9AsL-97" target="tgHYlAVjc7Peqk4h9AsL-121" edge="1">
          <mxGeometry width="50" height="50" relative="1" as="geometry">
            <mxPoint x="400" y="370" as="sourcePoint" />
            <mxPoint x="150" y="700" as="targetPoint" />
            <Array as="points">
              <mxPoint x="390" y="580" />
              <mxPoint x="110" y="580" />
              <mxPoint x="110" y="860" />
            </Array>
          </mxGeometry>
        </mxCell>
        <mxCell id="vWzix96Z64M3fHZLnADR-7" value="2MasRapidosPorTrayecto" style="text;html=1;align=center;verticalAlign=middle;resizable=0;points=[];autosize=1;strokeColor=none;fillColor=none;" parent="1" vertex="1">
          <mxGeometry x="230" y="980" width="160" height="30" as="geometry" />
        </mxCell>
        <mxCell id="vWzix96Z64M3fHZLnADR-8" value="TrayectoConPrecio" style="text;html=1;align=center;verticalAlign=middle;resizable=0;points=[];autosize=1;strokeColor=none;fillColor=none;" parent="1" vertex="1">
          <mxGeometry x="1015" y="470" width="120" height="30" as="geometry" />
        </mxCell>
        <mxCell id="vWzix96Z64M3fHZLnADR-10" value="CoordenadasAeropuerto" style="text;html=1;align=center;verticalAlign=middle;resizable=0;points=[];autosize=1;strokeColor=none;fillColor=none;" parent="1" vertex="1">
          <mxGeometry x="590" y="480" width="140" height="30" as="geometry" />
        </mxCell>
        <mxCell id="vWzix96Z64M3fHZLnADR-19" value="Worker" style="ellipse;shape=umlControl;whiteSpace=wrap;html=1;" parent="1" vertex="1">
          <mxGeometry x="695" y="690" width="70" height="80" as="geometry" />
        </mxCell>
        <mxCell id="vWzix96Z64M3fHZLnADR-28" value="Filtro por promedio" style="text;html=1;align=center;verticalAlign=middle;resizable=0;points=[];autosize=1;strokeColor=none;fillColor=none;" parent="1" vertex="1">
          <mxGeometry x="1065" y="880" width="120" height="30" as="geometry" />
        </mxCell>
        <mxCell id="vWzix96Z64M3fHZLnADR-33" value="PromedioPrecios" style="text;html=1;align=center;verticalAlign=middle;resizable=0;points=[];autosize=1;strokeColor=none;fillColor=none;" parent="1" vertex="1">
          <mxGeometry x="1125" y="500" width="110" height="30" as="geometry" />
        </mxCell>
        <mxCell id="vWzix96Z64M3fHZLnADR-39" value="Vuelos4VecesMasQueDirecto" style="text;html=1;align=center;verticalAlign=middle;resizable=0;points=[];autosize=1;strokeColor=none;fillColor=none;" parent="1" vertex="1">
          <mxGeometry x="605" y="920" width="170" height="30" as="geometry" />
        </mxCell>
        <mxCell id="vWzix96Z64M3fHZLnADR-40" value="" style="endArrow=classic;html=1;rounded=0;" parent="1" source="tgHYlAVjc7Peqk4h9AsL-105" target="tgHYlAVjc7Peqk4h9AsL-62" edge="1">
          <mxGeometry width="50" height="50" relative="1" as="geometry">
            <mxPoint x="1140" y="925" as="sourcePoint" />
            <mxPoint x="710" y="770" as="targetPoint" />
            <Array as="points">
              <mxPoint x="1130" y="1050" />
              <mxPoint x="-70" y="1050" />
            </Array>
          </mxGeometry>
        </mxCell>
        <mxCell id="vWzix96Z64M3fHZLnADR-43" value="AvgYMaxPorTrayecto" style="text;html=1;align=center;verticalAlign=middle;resizable=0;points=[];autosize=1;strokeColor=none;fillColor=none;" parent="1" vertex="1">
          <mxGeometry x="965" y="1020" width="140" height="30" as="geometry" />
        </mxCell>
        <mxCell id="vWzix96Z64M3fHZLnADR-56" value="" style="endArrow=classic;html=1;rounded=0;entryX=0.5;entryY=1;entryDx=0;entryDy=0;entryPerimeter=0;" parent="1" source="tgHYlAVjc7Peqk4h9AsL-101" target="vWzix96Z64M3fHZLnADR-68" edge="1">
          <mxGeometry width="50" height="50" relative="1" as="geometry">
            <mxPoint x="443.9899999999998" y="864" as="sourcePoint" />
            <mxPoint x="1660" y="1200" as="targetPoint" />
            <Array as="points">
              <mxPoint x="530" y="860" />
              <mxPoint x="530" y="1100" />
              <mxPoint x="1360" y="1100" />
              <mxPoint x="1360" y="333" />
            </Array>
          </mxGeometry>
        </mxCell>
        <mxCell id="vWzix96Z64M3fHZLnADR-57" value="" style="endArrow=classic;html=1;rounded=0;entryX=0.5;entryY=1;entryDx=0;entryDy=0;entryPerimeter=0;" parent="1" source="vWzix96Z64M3fHZLnADR-19" target="vWzix96Z64M3fHZLnADR-68" edge="1">
          <mxGeometry width="50" height="50" relative="1" as="geometry">
            <mxPoint x="770" y="740" as="sourcePoint" />
            <mxPoint x="1660" y="1200" as="targetPoint" />
            <Array as="points">
              <mxPoint x="1000" y="730" />
              <mxPoint x="1000" y="333" />
            </Array>
          </mxGeometry>
        </mxCell>
        <mxCell id="vWzix96Z64M3fHZLnADR-66" value="" style="endArrow=classic;html=1;rounded=0;entryX=0.5;entryY=1;entryDx=0;entryDy=0;entryPerimeter=0;" parent="1" source="tgHYlAVjc7Peqk4h9AsL-105" target="vWzix96Z64M3fHZLnADR-68" edge="1">
          <mxGeometry width="50" height="50" relative="1" as="geometry">
            <mxPoint x="1020" y="970" as="sourcePoint" />
            <mxPoint x="1660" y="1200" as="targetPoint" />
            <Array as="points">
              <mxPoint x="1360" y="840" />
              <mxPoint x="1360" y="333" />
            </Array>
          </mxGeometry>
        </mxCell>
        <mxCell id="vWzix96Z64M3fHZLnADR-70" style="edgeStyle=orthogonalEdgeStyle;rounded=0;orthogonalLoop=1;jettySize=auto;html=1;" parent="1" source="vWzix96Z64M3fHZLnADR-68" target="tgHYlAVjc7Peqk4h9AsL-97" edge="1">
          <mxGeometry relative="1" as="geometry">
            <mxPoint x="430" y="340" as="targetPoint" />
          </mxGeometry>
        </mxCell>
        <mxCell id="vWzix96Z64M3fHZLnADR-68" value="" style="shape=cylinder3;whiteSpace=wrap;html=1;boundedLbl=1;backgroundOutline=1;size=15;rotation=-90;" parent="1" vertex="1">
          <mxGeometry x="725" y="293" width="60" height="80" as="geometry" />
        </mxCell>
        <mxCell id="vWzix96Z64M3fHZLnADR-69" value="Cola" style="text;html=1;align=center;verticalAlign=middle;resizable=0;points=[];autosize=1;strokeColor=none;fillColor=none;" parent="1" vertex="1">
          <mxGeometry x="735" y="318" width="50" height="30" as="geometry" />
        </mxCell>
        <mxCell id="vWzix96Z64M3fHZLnADR-71" value="Ready" style="text;html=1;align=center;verticalAlign=middle;resizable=0;points=[];autosize=1;strokeColor=none;fillColor=none;" parent="1" vertex="1">
          <mxGeometry x="570" y="300" width="50" height="30" as="geometry" />
        </mxCell>
        <mxCell id="vWzix96Z64M3fHZLnADR-75" value="Ready" style="text;html=1;align=center;verticalAlign=middle;resizable=0;points=[];autosize=1;strokeColor=none;fillColor=none;" parent="1" vertex="1">
          <mxGeometry x="535" y="1070" width="50" height="30" as="geometry" />
        </mxCell>
        <mxCell id="-u4wZpVQqWa6Jxgg2jf3-8" value="Ready" style="text;html=1;align=center;verticalAlign=middle;resizable=0;points=[];autosize=1;strokeColor=none;fillColor=none;" parent="1" vertex="1">
          <mxGeometry x="1310" y="810" width="50" height="30" as="geometry" />
        </mxCell>
        <mxCell id="-u4wZpVQqWa6Jxgg2jf3-10" value="Ready" style="text;html=1;align=center;verticalAlign=middle;resizable=0;points=[];autosize=1;strokeColor=none;fillColor=none;" parent="1" vertex="1">
          <mxGeometry x="950" y="330" width="50" height="30" as="geometry" />
        </mxCell>
        <mxCell id="-u4wZpVQqWa6Jxgg2jf3-12" value="CoordenadasAeropuerto" style="text;html=1;align=center;verticalAlign=middle;resizable=0;points=[];autosize=1;strokeColor=none;fillColor=none;" parent="1" vertex="1">
          <mxGeometry x="400" y="220" width="140" height="30" as="geometry" />
        </mxCell>
        <mxCell id="SsLDtULBoxzdfWxcPcWZ-1" value="" style="edgeStyle=orthogonalEdgeStyle;rounded=0;orthogonalLoop=1;jettySize=auto;html=1;" parent="1" source="vWzix96Z64M3fHZLnADR-19" target="tgHYlAVjc7Peqk4h9AsL-73" edge="1">
          <mxGeometry relative="1" as="geometry">
            <mxPoint x="730" y="800" as="sourcePoint" />
            <mxPoint x="730" y="810" as="targetPoint" />
          </mxGeometry>
        </mxCell>
        <mxCell id="C7V8-oqrq3Y0ZI8Kbpaw-4" style="edgeStyle=orthogonalEdgeStyle;rounded=0;orthogonalLoop=1;jettySize=auto;html=1;" edge="1" parent="1" source="tgHYlAVjc7Peqk4h9AsL-105" target="C7V8-oqrq3Y0ZI8Kbpaw-3">
          <mxGeometry relative="1" as="geometry" />
        </mxCell>
        <mxCell id="tgHYlAVjc7Peqk4h9AsL-105" value="Worker" style="ellipse;shape=umlControl;whiteSpace=wrap;html=1;" parent="1" vertex="1">
          <mxGeometry x="1095" y="800" width="70" height="80" as="geometry" />
        </mxCell>
        <mxCell id="jR0ErNh-O-IlKKXGDNMq-2" value="Worker" style="ellipse;shape=umlControl;whiteSpace=wrap;html=1;" parent="1" vertex="1">
          <mxGeometry x="360" y="810" width="70" height="80" as="geometry" />
        </mxCell>
        <mxCell id="tgHYlAVjc7Peqk4h9AsL-101" value="Worker" style="ellipse;shape=umlControl;whiteSpace=wrap;html=1;" parent="1" vertex="1">
          <mxGeometry x="350" y="820" width="70" height="80" as="geometry" />
        </mxCell>
        <mxCell id="C7V8-oqrq3Y0ZI8Kbpaw-3" value="Precios por trayecto" style="shape=note;whiteSpace=wrap;html=1;backgroundOutline=1;darkOpacity=0.05;size=11;" vertex="1" parent="1">
          <mxGeometry x="925" y="810" width="75" height="60" as="geometry" />
        </mxCell>
      </root>
    </mxGraphModel>
  </diagram>
  <diagram id="lLsqf-L1oh-no75bK6xV" name="DiagramaDespliegue">
    <mxGraphModel grid="1" page="1" gridSize="10" guides="1" tooltips="1" connect="1" arrows="1" fold="1" pageScale="1" pageWidth="827" pageHeight="1169" math="0" shadow="0">
      <root>
        <mxCell id="0" />
        <mxCell id="1" parent="0" />
        <object placeholders="1" c4Name="Interfaz Entrada" c4Type="ContainerScopeBoundary" c4Application="Container" label="&lt;font style=&quot;font-size: 16px&quot;&gt;&lt;b&gt;&lt;div style=&quot;text-align: left&quot;&gt;%c4Name%&lt;/div&gt;&lt;/b&gt;&lt;/font&gt;&lt;div style=&quot;text-align: left&quot;&gt;[%c4Application%]&lt;/div&gt;" id="0UKaycL4rT2quDGroTpY-1">
          <mxCell style="rounded=1;fontSize=11;whiteSpace=wrap;html=1;dashed=1;arcSize=20;fillColor=none;strokeColor=#666666;fontColor=#333333;labelBackgroundColor=none;align=left;verticalAlign=bottom;labelBorderColor=none;spacingTop=0;spacing=10;dashPattern=8 4;metaEdit=1;rotatable=0;perimeter=rectanglePerimeter;noLabel=0;labelPadding=0;allowArrows=0;connectable=0;expand=0;recursiveResize=0;editable=1;pointerEvents=0;absoluteArcSize=1;points=[[0.25,0,0],[0.5,0,0],[0.75,0,0],[1,0.25,0],[1,0.5,0],[1,0.75,0],[0.75,1,0],[0.5,1,0],[0.25,1,0],[0,0.75,0],[0,0.5,0],[0,0.25,0]];" vertex="1" parent="1">
            <mxGeometry x="70" y="70" width="870" height="340" as="geometry" />
          </mxCell>
        </object>
        <mxCell id="0UKaycL4rT2quDGroTpY-2" value="«Process»&lt;br&gt;&lt;b&gt;Agregator&lt;br&gt;&lt;/b&gt;" style="html=1;dropTarget=0;whiteSpace=wrap;" vertex="1" parent="1">
          <mxGeometry x="410" y="90" width="180" height="90" as="geometry" />
        </mxCell>
        <mxCell id="0UKaycL4rT2quDGroTpY-3" value="" style="shape=module;jettyWidth=8;jettyHeight=4;" vertex="1" parent="0UKaycL4rT2quDGroTpY-2">
          <mxGeometry x="1" width="20" height="20" relative="1" as="geometry">
            <mxPoint x="-27" y="7" as="offset" />
          </mxGeometry>
        </mxCell>
        <mxCell id="cn7HuxivgLBtVoF0iVSN-10" style="edgeStyle=orthogonalEdgeStyle;rounded=0;orthogonalLoop=1;jettySize=auto;html=1;exitX=0.5;exitY=0;exitDx=0;exitDy=0;entryX=0.5;entryY=1;entryDx=0;entryDy=0;" edge="1" parent="1" source="0UKaycL4rT2quDGroTpY-4" target="0UKaycL4rT2quDGroTpY-2">
          <mxGeometry relative="1" as="geometry" />
        </mxCell>
        <mxCell id="cn7HuxivgLBtVoF0iVSN-11" style="edgeStyle=orthogonalEdgeStyle;rounded=0;orthogonalLoop=1;jettySize=auto;html=1;exitX=0;exitY=0.5;exitDx=0;exitDy=0;entryX=1;entryY=0.5;entryDx=0;entryDy=0;" edge="1" parent="1" source="0UKaycL4rT2quDGroTpY-4" target="6WSLS-vSpRc_zBIWD3NZ-8">
          <mxGeometry relative="1" as="geometry" />
        </mxCell>
        <mxCell id="cn7HuxivgLBtVoF0iVSN-12" style="edgeStyle=orthogonalEdgeStyle;rounded=0;orthogonalLoop=1;jettySize=auto;html=1;exitX=1;exitY=0.5;exitDx=0;exitDy=0;entryX=0;entryY=0.5;entryDx=0;entryDy=0;" edge="1" parent="1" source="0UKaycL4rT2quDGroTpY-4" target="6WSLS-vSpRc_zBIWD3NZ-14">
          <mxGeometry relative="1" as="geometry" />
        </mxCell>
        <mxCell id="0UKaycL4rT2quDGroTpY-4" value="«Process»&lt;br&gt;&lt;b&gt;Parser&lt;br&gt;&lt;/b&gt;" style="html=1;dropTarget=0;whiteSpace=wrap;" vertex="1" parent="1">
          <mxGeometry x="410" y="260" width="180" height="90" as="geometry" />
        </mxCell>
        <mxCell id="0UKaycL4rT2quDGroTpY-5" value="" style="shape=module;jettyWidth=8;jettyHeight=4;" vertex="1" parent="0UKaycL4rT2quDGroTpY-4">
          <mxGeometry x="1" width="20" height="20" relative="1" as="geometry">
            <mxPoint x="-27" y="7" as="offset" />
          </mxGeometry>
        </mxCell>
        <mxCell id="0UKaycL4rT2quDGroTpY-11" value="«Process»&lt;br&gt;&lt;b&gt;RabbitMQ&lt;br&gt;&lt;/b&gt;" style="html=1;dropTarget=0;whiteSpace=wrap;" vertex="1" parent="1">
          <mxGeometry x="420" y="590" width="180" height="90" as="geometry" />
        </mxCell>
        <mxCell id="0UKaycL4rT2quDGroTpY-12" value="" style="shape=module;jettyWidth=8;jettyHeight=4;" vertex="1" parent="0UKaycL4rT2quDGroTpY-11">
          <mxGeometry x="1" width="20" height="20" relative="1" as="geometry">
            <mxPoint x="-27" y="7" as="offset" />
          </mxGeometry>
        </mxCell>
        <mxCell id="0UKaycL4rT2quDGroTpY-15" value="" style="endArrow=classic;html=1;rounded=0;startArrow=classic;startFill=1;" edge="1" parent="1">
          <mxGeometry width="50" height="50" relative="1" as="geometry">
            <mxPoint x="500" y="410" as="sourcePoint" />
            <mxPoint x="500" y="540" as="targetPoint" />
          </mxGeometry>
        </mxCell>
        <object placeholders="1" c4Name="Filtro por distancia" c4Type="ContainerScopeBoundary" c4Application="Container" label="&lt;font style=&quot;font-size: 16px&quot;&gt;&lt;b&gt;&lt;div style=&quot;text-align: left&quot;&gt;%c4Name%&lt;/div&gt;&lt;/b&gt;&lt;/font&gt;&lt;div style=&quot;text-align: left&quot;&gt;[%c4Application%]&lt;/div&gt;" id="0UKaycL4rT2quDGroTpY-19">
          <mxCell style="rounded=1;fontSize=11;whiteSpace=wrap;html=1;dashed=1;arcSize=20;fillColor=none;strokeColor=#666666;fontColor=#333333;labelBackgroundColor=none;align=left;verticalAlign=bottom;labelBorderColor=none;spacingTop=0;spacing=10;dashPattern=8 4;metaEdit=1;rotatable=0;perimeter=rectanglePerimeter;noLabel=0;labelPadding=0;allowArrows=0;connectable=0;expand=0;recursiveResize=0;editable=1;pointerEvents=0;absoluteArcSize=1;points=[[0.25,0,0],[0.5,0,0],[0.75,0,0],[1,0.25,0],[1,0.5,0],[1,0.75,0],[0.75,1,0],[0.5,1,0],[0.25,1,0],[0,0.75,0],[0,0.5,0],[0,0.25,0]];" vertex="1" parent="1">
            <mxGeometry x="-130" y="440" width="240" height="390" as="geometry" />
          </mxCell>
        </object>
        <object placeholders="1" c4Name="Sumador tarifas" c4Type="ContainerScopeBoundary" c4Application="Container" label="&lt;font style=&quot;font-size: 16px&quot;&gt;&lt;b&gt;&lt;div style=&quot;text-align: left&quot;&gt;%c4Name%&lt;/div&gt;&lt;/b&gt;&lt;/font&gt;&lt;div style=&quot;text-align: left&quot;&gt;[%c4Application%]&lt;/div&gt;" id="6WSLS-vSpRc_zBIWD3NZ-1">
          <mxCell style="rounded=1;fontSize=11;whiteSpace=wrap;html=1;dashed=1;arcSize=20;fillColor=none;strokeColor=#666666;fontColor=#333333;labelBackgroundColor=none;align=left;verticalAlign=bottom;labelBorderColor=none;spacingTop=0;spacing=10;dashPattern=8 4;metaEdit=1;rotatable=0;perimeter=rectanglePerimeter;noLabel=0;labelPadding=0;allowArrows=0;connectable=0;expand=0;recursiveResize=0;editable=1;pointerEvents=0;absoluteArcSize=1;points=[[0.25,0,0],[0.5,0,0],[0.75,0,0],[1,0.25,0],[1,0.5,0],[1,0.75,0],[0.75,1,0],[0.5,1,0],[0.25,1,0],[0,0.75,0],[0,0.5,0],[0,0.25,0]];" vertex="1" parent="1">
            <mxGeometry x="920" y="450" width="470" height="310" as="geometry" />
          </mxCell>
        </object>
        <mxCell id="6WSLS-vSpRc_zBIWD3NZ-2" value="" style="endArrow=classic;html=1;rounded=0;entryX=1;entryY=0.5;entryDx=0;entryDy=0;startArrow=classic;startFill=1;" edge="1" parent="1">
          <mxGeometry width="50" height="50" relative="1" as="geometry">
            <mxPoint x="920" y="640" as="sourcePoint" />
            <mxPoint x="630" y="640" as="targetPoint" />
          </mxGeometry>
        </mxCell>
        <mxCell id="6WSLS-vSpRc_zBIWD3NZ-6" value="" style="endArrow=classic;html=1;rounded=0;startArrow=classic;startFill=1;" edge="1" parent="1">
          <mxGeometry width="50" height="50" relative="1" as="geometry">
            <mxPoint x="380" y="640" as="sourcePoint" />
            <mxPoint x="120" y="640" as="targetPoint" />
            <Array as="points">
              <mxPoint x="290" y="640" />
            </Array>
          </mxGeometry>
        </mxCell>
        <object placeholders="1" c4Name="RabbitMQContainer" c4Type="ContainerScopeBoundary" c4Application="Container" label="&lt;font style=&quot;font-size: 16px&quot;&gt;&lt;b&gt;&lt;div style=&quot;text-align: left&quot;&gt;%c4Name%&lt;/div&gt;&lt;/b&gt;&lt;/font&gt;&lt;div style=&quot;text-align: left&quot;&gt;[%c4Application%]&lt;/div&gt;" id="6WSLS-vSpRc_zBIWD3NZ-7">
          <mxCell style="rounded=1;fontSize=11;whiteSpace=wrap;html=1;dashed=1;arcSize=20;fillColor=none;strokeColor=#666666;fontColor=#333333;labelBackgroundColor=none;align=left;verticalAlign=bottom;labelBorderColor=none;spacingTop=0;spacing=10;dashPattern=8 4;metaEdit=1;rotatable=0;perimeter=rectanglePerimeter;noLabel=0;labelPadding=0;allowArrows=0;connectable=0;expand=0;recursiveResize=0;editable=1;pointerEvents=0;absoluteArcSize=1;points=[[0.25,0,0],[0.5,0,0],[0.75,0,0],[1,0.25,0],[1,0.5,0],[1,0.75,0],[0.75,1,0],[0.5,1,0],[0.25,1,0],[0,0.75,0],[0,0.5,0],[0,0.25,0]];" vertex="1" parent="1">
            <mxGeometry x="390" y="540" width="240" height="210" as="geometry" />
          </mxCell>
        </object>
        <mxCell id="6WSLS-vSpRc_zBIWD3NZ-8" value="«Library»&lt;br&gt;&lt;b&gt;Stopsfilter&lt;br&gt;&lt;/b&gt;" style="html=1;dropTarget=0;whiteSpace=wrap;" vertex="1" parent="1">
          <mxGeometry x="110" y="260" width="180" height="90" as="geometry" />
        </mxCell>
        <mxCell id="6WSLS-vSpRc_zBIWD3NZ-9" value="" style="shape=module;jettyWidth=8;jettyHeight=4;" vertex="1" parent="6WSLS-vSpRc_zBIWD3NZ-8">
          <mxGeometry x="1" width="20" height="20" relative="1" as="geometry">
            <mxPoint x="-27" y="7" as="offset" />
          </mxGeometry>
        </mxCell>
        <mxCell id="YK3xaPEU3ORU_jMeUiGx-9" style="edgeStyle=orthogonalEdgeStyle;rounded=0;orthogonalLoop=1;jettySize=auto;html=1;exitX=0.5;exitY=1;exitDx=0;exitDy=0;entryX=0.5;entryY=0;entryDx=0;entryDy=0;" edge="1" parent="1" source="6WSLS-vSpRc_zBIWD3NZ-10" target="YK3xaPEU3ORU_jMeUiGx-7">
          <mxGeometry relative="1" as="geometry" />
        </mxCell>
        <mxCell id="6WSLS-vSpRc_zBIWD3NZ-10" value="«Process»&lt;br&gt;&lt;b&gt;DistanceFIlter&lt;br&gt;&lt;/b&gt;" style="html=1;dropTarget=0;whiteSpace=wrap;" vertex="1" parent="1">
          <mxGeometry x="-100" y="490" width="180" height="90" as="geometry" />
        </mxCell>
        <mxCell id="6WSLS-vSpRc_zBIWD3NZ-11" value="" style="shape=module;jettyWidth=8;jettyHeight=4;" vertex="1" parent="6WSLS-vSpRc_zBIWD3NZ-10">
          <mxGeometry x="1" width="20" height="20" relative="1" as="geometry">
            <mxPoint x="-27" y="7" as="offset" />
          </mxGeometry>
        </mxCell>
        <mxCell id="6WSLS-vSpRc_zBIWD3NZ-14" value="&lt;div&gt;«Routine»&lt;/div&gt;&lt;b&gt;Global Avg&lt;br&gt;&lt;/b&gt;" style="html=1;dropTarget=0;whiteSpace=wrap;" vertex="1" parent="1">
          <mxGeometry x="730" y="260" width="180" height="90" as="geometry" />
        </mxCell>
        <mxCell id="6WSLS-vSpRc_zBIWD3NZ-15" value="" style="shape=module;jettyWidth=8;jettyHeight=4;" vertex="1" parent="6WSLS-vSpRc_zBIWD3NZ-14">
          <mxGeometry x="1" width="20" height="20" relative="1" as="geometry">
            <mxPoint x="-27" y="7" as="offset" />
          </mxGeometry>
        </mxCell>
        <mxCell id="cn7HuxivgLBtVoF0iVSN-7" style="edgeStyle=orthogonalEdgeStyle;rounded=0;orthogonalLoop=1;jettySize=auto;html=1;exitX=1;exitY=0.5;exitDx=0;exitDy=0;entryX=0;entryY=0.5;entryDx=0;entryDy=0;" edge="1" parent="1" source="6WSLS-vSpRc_zBIWD3NZ-16" target="cn7HuxivgLBtVoF0iVSN-3">
          <mxGeometry relative="1" as="geometry" />
        </mxCell>
        <mxCell id="cn7HuxivgLBtVoF0iVSN-8" style="edgeStyle=orthogonalEdgeStyle;rounded=0;orthogonalLoop=1;jettySize=auto;html=1;exitX=1;exitY=0.5;exitDx=0;exitDy=0;entryX=0;entryY=0.5;entryDx=0;entryDy=0;" edge="1" parent="1" source="6WSLS-vSpRc_zBIWD3NZ-16" target="cn7HuxivgLBtVoF0iVSN-5">
          <mxGeometry relative="1" as="geometry" />
        </mxCell>
        <mxCell id="6WSLS-vSpRc_zBIWD3NZ-16" value="«Process»&lt;br&gt;&lt;b&gt;AvgFilter&lt;br&gt;&lt;/b&gt;" style="html=1;dropTarget=0;whiteSpace=wrap;" vertex="1" parent="1">
          <mxGeometry x="950" y="560" width="180" height="90" as="geometry" />
        </mxCell>
        <mxCell id="6WSLS-vSpRc_zBIWD3NZ-17" value="" style="shape=module;jettyWidth=8;jettyHeight=4;" vertex="1" parent="6WSLS-vSpRc_zBIWD3NZ-16">
          <mxGeometry x="1" width="20" height="20" relative="1" as="geometry">
            <mxPoint x="-27" y="7" as="offset" />
          </mxGeometry>
        </mxCell>
        <object placeholders="1" c4Name="Filtro por rapidez" c4Type="ContainerScopeBoundary" c4Application="Container" label="&lt;font style=&quot;font-size: 16px&quot;&gt;&lt;b&gt;&lt;div style=&quot;text-align: left&quot;&gt;%c4Name%&lt;/div&gt;&lt;/b&gt;&lt;/font&gt;&lt;div style=&quot;text-align: left&quot;&gt;[%c4Application%]&lt;/div&gt;" id="YK3xaPEU3ORU_jMeUiGx-3">
          <mxCell style="rounded=1;fontSize=11;whiteSpace=wrap;html=1;dashed=1;arcSize=20;fillColor=none;strokeColor=#666666;fontColor=#333333;labelBackgroundColor=none;align=left;verticalAlign=bottom;labelBorderColor=none;spacingTop=0;spacing=10;dashPattern=8 4;metaEdit=1;rotatable=0;perimeter=rectanglePerimeter;noLabel=0;labelPadding=0;allowArrows=0;connectable=0;expand=0;recursiveResize=0;editable=1;pointerEvents=0;absoluteArcSize=1;points=[[0.25,0,0],[0.5,0,0],[0.75,0,0],[1,0.25,0],[1,0.5,0],[1,0.75,0],[0.75,1,0],[0.5,1,0],[0.25,1,0],[0,0.75,0],[0,0.5,0],[0,0.25,0]];" vertex="1" parent="1">
            <mxGeometry x="414" y="980" width="240" height="210" as="geometry" />
          </mxCell>
        </object>
        <mxCell id="YK3xaPEU3ORU_jMeUiGx-4" value="«Process»&lt;br&gt;&lt;b&gt;FastestFilter&lt;br&gt;&lt;/b&gt;" style="html=1;dropTarget=0;whiteSpace=wrap;" vertex="1" parent="1">
          <mxGeometry x="444" y="1030" width="180" height="90" as="geometry" />
        </mxCell>
        <mxCell id="YK3xaPEU3ORU_jMeUiGx-5" value="" style="shape=module;jettyWidth=8;jettyHeight=4;" vertex="1" parent="YK3xaPEU3ORU_jMeUiGx-4">
          <mxGeometry x="1" width="20" height="20" relative="1" as="geometry">
            <mxPoint x="-27" y="7" as="offset" />
          </mxGeometry>
        </mxCell>
        <mxCell id="YK3xaPEU3ORU_jMeUiGx-6" value="" style="endArrow=classic;html=1;rounded=0;startArrow=classic;startFill=1;" edge="1" parent="1">
          <mxGeometry width="50" height="50" relative="1" as="geometry">
            <mxPoint x="510" y="760" as="sourcePoint" />
            <mxPoint x="510" y="970" as="targetPoint" />
            <Array as="points">
              <mxPoint x="510" y="900" />
            </Array>
          </mxGeometry>
        </mxCell>
        <mxCell id="YK3xaPEU3ORU_jMeUiGx-7" value="«Library»&lt;br&gt;&lt;b&gt;distance.DistanceComputer&lt;br&gt;&lt;/b&gt;" style="html=1;dropTarget=0;whiteSpace=wrap;" vertex="1" parent="1">
          <mxGeometry x="-100" y="660" width="180" height="90" as="geometry" />
        </mxCell>
        <mxCell id="YK3xaPEU3ORU_jMeUiGx-8" value="" style="shape=module;jettyWidth=8;jettyHeight=4;" vertex="1" parent="YK3xaPEU3ORU_jMeUiGx-7">
          <mxGeometry x="1" width="20" height="20" relative="1" as="geometry">
            <mxPoint x="-27" y="7" as="offset" />
          </mxGeometry>
        </mxCell>
        <mxCell id="cn7HuxivgLBtVoF0iVSN-3" value="&lt;div&gt;«Routine»&lt;/div&gt;&lt;div&gt;&lt;b&gt;TrayectAgregator&lt;/b&gt;&lt;br&gt;&lt;/div&gt;" style="html=1;dropTarget=0;whiteSpace=wrap;" vertex="1" parent="1">
          <mxGeometry x="1180" y="480" width="180" height="90" as="geometry" />
        </mxCell>
        <mxCell id="cn7HuxivgLBtVoF0iVSN-4" value="" style="shape=module;jettyWidth=8;jettyHeight=4;" vertex="1" parent="cn7HuxivgLBtVoF0iVSN-3">
          <mxGeometry x="1" width="20" height="20" relative="1" as="geometry">
            <mxPoint x="-27" y="7" as="offset" />
          </mxGeometry>
        </mxCell>
        <mxCell id="cn7HuxivgLBtVoF0iVSN-5" value="«Routine»&lt;br&gt;&lt;b&gt;Agregate&lt;/b&gt;" style="html=1;dropTarget=0;whiteSpace=wrap;" vertex="1" parent="1">
          <mxGeometry x="1180" y="640" width="180" height="90" as="geometry" />
        </mxCell>
        <mxCell id="cn7HuxivgLBtVoF0iVSN-6" value="" style="shape=module;jettyWidth=8;jettyHeight=4;" vertex="1" parent="cn7HuxivgLBtVoF0iVSN-5">
          <mxGeometry x="1" width="20" height="20" relative="1" as="geometry">
            <mxPoint x="-27" y="7" as="offset" />
          </mxGeometry>
        </mxCell>
        <mxCell id="cn7HuxivgLBtVoF0iVSN-13" value="" style="rounded=0;whiteSpace=wrap;html=1;fillColor=none;" vertex="1" parent="1">
          <mxGeometry x="-190" y="40" width="1620" height="1180" as="geometry" />
        </mxCell>
      </root>
    </mxGraphModel>
  </diagram>
  <diagram id="1TB4sQY_Bz75B1-9BJxk" name="DAG">
    <mxGraphModel grid="1" page="1" gridSize="10" guides="1" tooltips="1" connect="1" arrows="1" fold="1" pageScale="1" pageWidth="850" pageHeight="1100" math="0" shadow="0">
      <root>
        <mxCell id="0" />
        <mxCell id="1" parent="0" />
        <mxCell id="UMSjgDRzoL-Plr_88oFh-11" style="edgeStyle=orthogonalEdgeStyle;rounded=0;orthogonalLoop=1;jettySize=auto;html=1;exitX=0.5;exitY=1;exitDx=0;exitDy=0;entryX=0.5;entryY=0;entryDx=0;entryDy=0;" edge="1" parent="1" source="i6Zg2SXkIwq7RLM9frC7-1" target="UMSjgDRzoL-Plr_88oFh-6">
          <mxGeometry relative="1" as="geometry" />
        </mxCell>
        <mxCell id="i6Zg2SXkIwq7RLM9frC7-1" value="Vuelo" style="rounded=0;whiteSpace=wrap;html=1;" vertex="1" parent="1">
          <mxGeometry x="130" y="180" width="120" height="60" as="geometry" />
        </mxCell>
        <mxCell id="UMSjgDRzoL-Plr_88oFh-8" style="edgeStyle=orthogonalEdgeStyle;rounded=0;orthogonalLoop=1;jettySize=auto;html=1;exitX=0.5;exitY=1;exitDx=0;exitDy=0;entryX=0.5;entryY=0;entryDx=0;entryDy=0;" edge="1" parent="1" source="i6Zg2SXkIwq7RLM9frC7-2" target="UMSjgDRzoL-Plr_88oFh-7">
          <mxGeometry relative="1" as="geometry" />
        </mxCell>
        <mxCell id="i6Zg2SXkIwq7RLM9frC7-2" value="Coordenadas" style="rounded=0;whiteSpace=wrap;html=1;" vertex="1" parent="1">
          <mxGeometry x="520" y="180" width="120" height="60" as="geometry" />
        </mxCell>
        <mxCell id="UMSjgDRzoL-Plr_88oFh-4" style="edgeStyle=orthogonalEdgeStyle;rounded=0;orthogonalLoop=1;jettySize=auto;html=1;exitX=0.5;exitY=1;exitDx=0;exitDy=0;entryX=0.5;entryY=0;entryDx=0;entryDy=0;" edge="1" parent="1" source="i6Zg2SXkIwq7RLM9frC7-3" target="UMSjgDRzoL-Plr_88oFh-3">
          <mxGeometry relative="1" as="geometry" />
        </mxCell>
        <mxCell id="i6Zg2SXkIwq7RLM9frC7-3" value="Guardar coordenadas" style="rounded=0;whiteSpace=wrap;html=1;" vertex="1" parent="1">
          <mxGeometry x="520" y="530" width="120" height="60" as="geometry" />
        </mxCell>
        <mxCell id="UMSjgDRzoL-Plr_88oFh-19" style="edgeStyle=orthogonalEdgeStyle;rounded=0;orthogonalLoop=1;jettySize=auto;html=1;exitX=0.5;exitY=1;exitDx=0;exitDy=0;entryX=0.5;entryY=0;entryDx=0;entryDy=0;" edge="1" parent="1" source="UMSjgDRzoL-Plr_88oFh-3" target="UMSjgDRzoL-Plr_88oFh-18">
          <mxGeometry relative="1" as="geometry" />
        </mxCell>
        <mxCell id="UMSjgDRzoL-Plr_88oFh-3" value="FIltrar por distancia" style="rounded=0;whiteSpace=wrap;html=1;" vertex="1" parent="1">
          <mxGeometry x="400" y="710" width="120" height="60" as="geometry" />
        </mxCell>
        <mxCell id="UMSjgDRzoL-Plr_88oFh-16" style="edgeStyle=orthogonalEdgeStyle;rounded=0;orthogonalLoop=1;jettySize=auto;html=1;exitX=0.5;exitY=1;exitDx=0;exitDy=0;entryX=0.25;entryY=0;entryDx=0;entryDy=0;" edge="1" parent="1" source="UMSjgDRzoL-Plr_88oFh-6" target="UMSjgDRzoL-Plr_88oFh-3">
          <mxGeometry relative="1" as="geometry" />
        </mxCell>
        <mxCell id="UMSjgDRzoL-Plr_88oFh-25" style="edgeStyle=orthogonalEdgeStyle;rounded=0;orthogonalLoop=1;jettySize=auto;html=1;exitX=0;exitY=0.5;exitDx=0;exitDy=0;entryX=1;entryY=0.5;entryDx=0;entryDy=0;" edge="1" parent="1" source="UMSjgDRzoL-Plr_88oFh-6" target="UMSjgDRzoL-Plr_88oFh-14">
          <mxGeometry relative="1" as="geometry">
            <mxPoint x="20" y="360" as="sourcePoint" />
          </mxGeometry>
        </mxCell>
        <mxCell id="UMSjgDRzoL-Plr_88oFh-33" style="edgeStyle=orthogonalEdgeStyle;rounded=0;orthogonalLoop=1;jettySize=auto;html=1;exitX=0.5;exitY=1;exitDx=0;exitDy=0;entryX=0.5;entryY=0;entryDx=0;entryDy=0;" edge="1" parent="1" source="UMSjgDRzoL-Plr_88oFh-6" target="UMSjgDRzoL-Plr_88oFh-35">
          <mxGeometry relative="1" as="geometry">
            <mxPoint x="-130" y="470" as="targetPoint" />
          </mxGeometry>
        </mxCell>
        <mxCell id="UMSjgDRzoL-Plr_88oFh-37" style="edgeStyle=orthogonalEdgeStyle;rounded=0;orthogonalLoop=1;jettySize=auto;html=1;exitX=0.5;exitY=1;exitDx=0;exitDy=0;entryX=0.5;entryY=0;entryDx=0;entryDy=0;" edge="1" parent="1" source="UMSjgDRzoL-Plr_88oFh-6" target="UMSjgDRzoL-Plr_88oFh-39">
          <mxGeometry relative="1" as="geometry">
            <mxPoint x="-50" y="560" as="targetPoint" />
          </mxGeometry>
        </mxCell>
        <mxCell id="UMSjgDRzoL-Plr_88oFh-6" value="Parsear datos vuelo" style="rounded=0;whiteSpace=wrap;html=1;" vertex="1" parent="1">
          <mxGeometry x="130" y="330" width="120" height="60" as="geometry" />
        </mxCell>
        <mxCell id="UMSjgDRzoL-Plr_88oFh-9" style="edgeStyle=orthogonalEdgeStyle;rounded=0;orthogonalLoop=1;jettySize=auto;html=1;exitX=0.5;exitY=1;exitDx=0;exitDy=0;entryX=0.5;entryY=0;entryDx=0;entryDy=0;" edge="1" parent="1" source="UMSjgDRzoL-Plr_88oFh-7" target="i6Zg2SXkIwq7RLM9frC7-3">
          <mxGeometry relative="1" as="geometry" />
        </mxCell>
        <mxCell id="UMSjgDRzoL-Plr_88oFh-7" value="Enviar coordenadas a workers" style="rounded=0;whiteSpace=wrap;html=1;" vertex="1" parent="1">
          <mxGeometry x="520" y="330" width="120" height="60" as="geometry" />
        </mxCell>
        <mxCell id="UMSjgDRzoL-Plr_88oFh-10" value="(aeropuerto, latitud, longitud)" style="text;html=1;align=center;verticalAlign=middle;resizable=0;points=[];autosize=1;strokeColor=none;fillColor=none;" vertex="1" parent="1">
          <mxGeometry x="580" y="268" width="180" height="30" as="geometry" />
        </mxCell>
        <mxCell id="UMSjgDRzoL-Plr_88oFh-12" value="(Id, Origin, Destination, DuracionString, PrecioString, DistanciaString, Stops)" style="text;html=1;align=center;verticalAlign=middle;resizable=0;points=[];autosize=1;strokeColor=none;fillColor=none;" vertex="1" parent="1">
          <mxGeometry x="-25" y="250" width="430" height="30" as="geometry" />
        </mxCell>
        <mxCell id="UMSjgDRzoL-Plr_88oFh-20" style="edgeStyle=orthogonalEdgeStyle;rounded=0;orthogonalLoop=1;jettySize=auto;html=1;exitX=0;exitY=0.5;exitDx=0;exitDy=0;entryX=0;entryY=0.5;entryDx=0;entryDy=0;" edge="1" parent="1" source="UMSjgDRzoL-Plr_88oFh-14" target="UMSjgDRzoL-Plr_88oFh-18">
          <mxGeometry relative="1" as="geometry">
            <Array as="points">
              <mxPoint x="-790" y="360" />
              <mxPoint x="-790" y="970" />
            </Array>
          </mxGeometry>
        </mxCell>
        <mxCell id="UMSjgDRzoL-Plr_88oFh-28" style="edgeStyle=orthogonalEdgeStyle;rounded=0;orthogonalLoop=1;jettySize=auto;html=1;exitX=0.5;exitY=1;exitDx=0;exitDy=0;entryX=0.5;entryY=0;entryDx=0;entryDy=0;" edge="1" parent="1" source="UMSjgDRzoL-Plr_88oFh-14" target="UMSjgDRzoL-Plr_88oFh-27">
          <mxGeometry relative="1" as="geometry" />
        </mxCell>
        <mxCell id="UMSjgDRzoL-Plr_88oFh-14" value="Filtrar por escalas" style="rounded=0;whiteSpace=wrap;html=1;" vertex="1" parent="1">
          <mxGeometry x="-530" y="330" width="120" height="60" as="geometry" />
        </mxCell>
        <mxCell id="UMSjgDRzoL-Plr_88oFh-18" value="Enviar resultado" style="rounded=0;whiteSpace=wrap;html=1;" vertex="1" parent="1">
          <mxGeometry x="140" y="940" width="120" height="60" as="geometry" />
        </mxCell>
        <mxCell id="UMSjgDRzoL-Plr_88oFh-21" value="(aeropuerto, latitud, longitud)" style="text;html=1;align=center;verticalAlign=middle;resizable=0;points=[];autosize=1;strokeColor=none;fillColor=none;" vertex="1" parent="1">
          <mxGeometry x="580" y="440" width="180" height="30" as="geometry" />
        </mxCell>
        <mxCell id="UMSjgDRzoL-Plr_88oFh-22" value="(Id, Origin, Destination, Distancia)" style="text;html=1;align=center;verticalAlign=middle;resizable=0;points=[];autosize=1;strokeColor=none;fillColor=none;" vertex="1" parent="1">
          <mxGeometry x="220" y="510" width="200" height="30" as="geometry" />
        </mxCell>
        <mxCell id="UMSjgDRzoL-Plr_88oFh-23" value="(Id, Origin, Destination, Distancia)" style="text;html=1;align=center;verticalAlign=middle;resizable=0;points=[];autosize=1;strokeColor=none;fillColor=none;" vertex="1" parent="1">
          <mxGeometry x="460" y="800" width="200" height="30" as="geometry" />
        </mxCell>
        <mxCell id="UMSjgDRzoL-Plr_88oFh-24" value="(Id, Origin, Destination, Precio, escalas)" style="text;html=1;align=center;verticalAlign=middle;resizable=0;points=[];autosize=1;strokeColor=none;fillColor=none;" vertex="1" parent="1">
          <mxGeometry x="-1030" y="770" width="230" height="30" as="geometry" />
        </mxCell>
        <mxCell id="UMSjgDRzoL-Plr_88oFh-26" value="(Id, Origin, Destination, Duracion, Precio, escalas)" style="text;html=1;align=center;verticalAlign=middle;resizable=0;points=[];autosize=1;strokeColor=none;fillColor=none;" vertex="1" parent="1">
          <mxGeometry x="-410" y="330" width="290" height="30" as="geometry" />
        </mxCell>
        <mxCell id="UMSjgDRzoL-Plr_88oFh-29" style="edgeStyle=orthogonalEdgeStyle;rounded=0;orthogonalLoop=1;jettySize=auto;html=1;exitX=0.5;exitY=1;exitDx=0;exitDy=0;entryX=0;entryY=0.25;entryDx=0;entryDy=0;" edge="1" parent="1" source="UMSjgDRzoL-Plr_88oFh-27" target="UMSjgDRzoL-Plr_88oFh-18">
          <mxGeometry relative="1" as="geometry" />
        </mxCell>
        <mxCell id="UMSjgDRzoL-Plr_88oFh-27" value="Filtrar por duracion" style="rounded=0;whiteSpace=wrap;html=1;" vertex="1" parent="1">
          <mxGeometry x="-530" y="550" width="120" height="60" as="geometry" />
        </mxCell>
        <mxCell id="UMSjgDRzoL-Plr_88oFh-30" value="(Id, Origin, Destination, Precio, duracion, escalas)" style="text;html=1;align=center;verticalAlign=middle;resizable=0;points=[];autosize=1;strokeColor=none;fillColor=none;" vertex="1" parent="1">
          <mxGeometry x="-760" y="440" width="290" height="30" as="geometry" />
        </mxCell>
        <mxCell id="UMSjgDRzoL-Plr_88oFh-31" value="(Id, Origin, Destination, Precio, duracion, escalas)" style="text;html=1;align=center;verticalAlign=middle;resizable=0;points=[];autosize=1;strokeColor=none;fillColor=none;" vertex="1" parent="1">
          <mxGeometry x="-750" y="770" width="290" height="30" as="geometry" />
        </mxCell>
        <mxCell id="UMSjgDRzoL-Plr_88oFh-34" value="(Precio)" style="text;html=1;align=center;verticalAlign=middle;resizable=0;points=[];autosize=1;strokeColor=none;fillColor=none;" vertex="1" parent="1">
          <mxGeometry x="-255" y="390" width="70" height="30" as="geometry" />
        </mxCell>
        <mxCell id="UMSjgDRzoL-Plr_88oFh-41" style="edgeStyle=orthogonalEdgeStyle;rounded=0;orthogonalLoop=1;jettySize=auto;html=1;exitX=0.5;exitY=1;exitDx=0;exitDy=0;entryX=0.5;entryY=0;entryDx=0;entryDy=0;" edge="1" parent="1" source="UMSjgDRzoL-Plr_88oFh-35" target="UMSjgDRzoL-Plr_88oFh-40">
          <mxGeometry relative="1" as="geometry" />
        </mxCell>
        <mxCell id="UMSjgDRzoL-Plr_88oFh-35" value="Calcular promedio" style="rounded=0;whiteSpace=wrap;html=1;" vertex="1" parent="1">
          <mxGeometry x="-390" y="470" width="120" height="60" as="geometry" />
        </mxCell>
        <mxCell id="UMSjgDRzoL-Plr_88oFh-38" value="(Origen, Destino, Precio)" style="text;html=1;align=center;verticalAlign=middle;resizable=0;points=[];autosize=1;strokeColor=none;fillColor=none;" vertex="1" parent="1">
          <mxGeometry x="-60" y="448" width="150" height="30" as="geometry" />
        </mxCell>
        <mxCell id="UMSjgDRzoL-Plr_88oFh-42" style="edgeStyle=orthogonalEdgeStyle;rounded=0;orthogonalLoop=1;jettySize=auto;html=1;exitX=0.5;exitY=1;exitDx=0;exitDy=0;entryX=1;entryY=0.5;entryDx=0;entryDy=0;" edge="1" parent="1" source="UMSjgDRzoL-Plr_88oFh-39" target="UMSjgDRzoL-Plr_88oFh-40">
          <mxGeometry relative="1" as="geometry" />
        </mxCell>
        <mxCell id="UMSjgDRzoL-Plr_88oFh-39" value="Guardar precios por trayecto" style="rounded=0;whiteSpace=wrap;html=1;" vertex="1" parent="1">
          <mxGeometry x="-110" y="560" width="120" height="60" as="geometry" />
        </mxCell>
        <mxCell id="UMSjgDRzoL-Plr_88oFh-47" style="edgeStyle=orthogonalEdgeStyle;rounded=0;orthogonalLoop=1;jettySize=auto;html=1;exitX=0.5;exitY=1;exitDx=0;exitDy=0;entryX=0.5;entryY=0;entryDx=0;entryDy=0;" edge="1" parent="1" source="UMSjgDRzoL-Plr_88oFh-40" target="UMSjgDRzoL-Plr_88oFh-46">
          <mxGeometry relative="1" as="geometry" />
        </mxCell>
        <mxCell id="UMSjgDRzoL-Plr_88oFh-40" value="Filtrar por trayecto" style="rounded=0;whiteSpace=wrap;html=1;" vertex="1" parent="1">
          <mxGeometry x="-280" y="710" width="120" height="60" as="geometry" />
        </mxCell>
        <mxCell id="UMSjgDRzoL-Plr_88oFh-43" value="(Origen, Destino, [precios])" style="text;html=1;align=center;verticalAlign=middle;resizable=0;points=[];autosize=1;strokeColor=none;fillColor=none;" vertex="1" parent="1">
          <mxGeometry x="-50" y="668" width="170" height="30" as="geometry" />
        </mxCell>
        <mxCell id="UMSjgDRzoL-Plr_88oFh-44" value="(Promedio)" style="text;html=1;align=center;verticalAlign=middle;resizable=0;points=[];autosize=1;strokeColor=none;fillColor=none;" vertex="1" parent="1">
          <mxGeometry x="-320" y="580" width="80" height="30" as="geometry" />
        </mxCell>
        <mxCell id="UMSjgDRzoL-Plr_88oFh-49" style="edgeStyle=orthogonalEdgeStyle;rounded=0;orthogonalLoop=1;jettySize=auto;html=1;exitX=1;exitY=0.5;exitDx=0;exitDy=0;entryX=0.25;entryY=0;entryDx=0;entryDy=0;" edge="1" parent="1" source="UMSjgDRzoL-Plr_88oFh-46" target="UMSjgDRzoL-Plr_88oFh-18">
          <mxGeometry relative="1" as="geometry" />
        </mxCell>
        <mxCell id="UMSjgDRzoL-Plr_88oFh-46" value="Calcular metricas por trayecto" style="rounded=0;whiteSpace=wrap;html=1;" vertex="1" parent="1">
          <mxGeometry x="-280" y="830" width="120" height="60" as="geometry" />
        </mxCell>
        <mxCell id="UMSjgDRzoL-Plr_88oFh-48" value="(Origen, Destino, [Precios])" style="text;html=1;align=center;verticalAlign=middle;resizable=0;points=[];autosize=1;strokeColor=none;fillColor=none;" vertex="1" parent="1">
          <mxGeometry x="-220" y="780" width="170" height="30" as="geometry" />
        </mxCell>
        <mxCell id="UMSjgDRzoL-Plr_88oFh-50" value="(Origen, Destino, maximo, promedio)" style="text;html=1;align=center;verticalAlign=middle;resizable=0;points=[];autosize=1;strokeColor=none;fillColor=none;" vertex="1" parent="1">
          <mxGeometry x="-110" y="828" width="220" height="30" as="geometry" />
        </mxCell>
        <mxCell id="UMSjgDRzoL-Plr_88oFh-51" value="" style="rounded=0;whiteSpace=wrap;html=1;fillColor=none;" vertex="1" parent="1">
          <mxGeometry x="-1040" y="160" width="1800" height="860" as="geometry" />
        </mxCell>
      </root>
    </mxGraphModel>
  </diagram>
</mxfile>
